<svg xmlns="http://www.w3.org/2000/svg" viewBox="0 0 24 24" fill="none">
  <rect width="24" height="24" rx="5" fill="#2D6A4F"/>
  <path d="M5 8.5V18a1 1 0 0 0 1 1h12a1 1 0 0 0 1-1V8.5" stroke="white" stroke-width="1.6" stroke-linecap="round" stroke-linejoin="round"/>
  <path d="M3.5 8.5h17l-1.2-3.6a1 1 0 0 0-.95-.69H5.65a1 1 0 0 0-.95.69L3.5 8.5Z" stroke="white" stroke-width="1.6" stroke-linejoin="round"/>
  <path d="M9 12.5v6M15 12.5v6" stroke="white" stroke-width="1.6" stroke-linecap="round"/>
  <path d="M9.5 8.5a2.5 2.5 0 0 1-5 0M14.5 8.5a2.5 2.5 0 0 1-5 0M19.5 8.5a2.5 2.5 0 0 1-5 0" stroke="white" stroke-width="1.4" stroke-linecap="round"/>
</svg>